<svg width="180" height="32" viewBox="0 0 180 32" fill="none" xmlns="http://www.w3.org/2000/svg">
<path fill-rule="evenodd" clip-rule="evenodd" d="M4.98374 16.0843C5.71989 15.0633 6.53119 14.0318 7.40873 13.006C6.34059 11.4693 5.48156 9.99284 4.85684 8.6433C4.11411 7.03864 3.77434 5.77308 3.70427 4.89868C3.66072 4.35475 3.73046 4.10759 3.76407 4.02243C3.84219 3.98105 4.07065 3.88956 4.58733 3.89701C5.41847 3.9091 6.63907 4.17767 8.20722 4.84678C9.63546 5.4563 11.2241 6.34289 12.89 7.48289C13.9269 6.58125 14.9676 5.74984 15.9983 4.995C13.6412 3.26911 11.3362 1.94118 9.24838 1.09179C7.50939 0.384355 5.89144 -0.0049232 4.50295 0.000157234C3.11315 0.00528833 1.89356 0.408277 1.05591 1.35735L1.0428 1.37379L0.915012 1.52862L0.902723 1.54419C0.144485 2.5259 -0.0955429 3.84284 0.0327702 5.29918C0.161289 6.75686 0.661795 8.41797 1.46058 10.1795C2.30483 12.0414 3.49883 14.0456 4.98374 16.0843Z" fill="white"/>
<path fill-rule="evenodd" clip-rule="evenodd" d="M22.7516 1.09169C24.4906 0.384255 26.1086 -0.0050268 27.4971 4.90187e-05C28.8868 0.00517998 30.1064 0.408225 30.9441 1.35724L30.9572 1.37368L31.085 1.52851L31.0973 1.54408C31.8555 2.52577 32.0955 3.84277 31.9672 5.29907C31.8387 6.75665 31.3389 8.418 30.5403 10.1794C29.6962 12.0408 28.5011 14.0463 27.0154 16.0856C26.2789 15.0641 25.4681 14.0335 24.5898 13.0071C25.6584 11.4703 26.5183 9.99302 27.1432 8.64319C27.8859 7.0385 28.2257 5.77296 28.2957 4.89858C28.3393 4.35465 28.2695 4.10749 28.2359 4.02233C28.1578 3.98092 27.9292 3.89031 27.4127 3.89777C26.5815 3.90985 25.3609 4.17757 23.7928 4.84668C22.3645 5.45621 20.7748 6.34304 19.1089 7.48355C18.0952 8.17728 17.0527 8.96494 15.9999 9.84135C15.0095 10.6659 14.0091 11.5697 13.0158 12.547C12.0633 13.4842 11.1747 14.4324 10.3548 15.3774C10.1536 15.6093 9.95647 15.8411 9.76356 16.0724C8.89584 17.1131 8.11494 18.1472 7.42339 19.153C6.40634 20.6322 5.58366 22.0534 4.98064 23.3561C4.23806 24.9604 3.89978 26.2269 3.82972 27.1015C3.78621 27.6454 3.85512 27.8927 3.8887 27.9778C3.96652 28.0192 4.19531 28.1099 4.71278 28.1024C5.54378 28.0903 6.76297 27.8216 8.33103 27.1526C8.42867 27.1109 8.52706 27.0679 8.62618 27.0237C9.93672 26.4386 11.3748 25.6277 12.8767 24.6102C13.894 23.9208 14.9414 23.1361 15.9999 22.2613C17.0308 21.4093 18.0741 20.4703 19.1088 19.4523C20.2456 18.3338 21.2907 17.1984 22.2372 16.0727C22.4661 16.3473 22.6898 16.6224 22.9065 16.8957C23.4354 17.5624 23.928 18.2241 24.3837 18.8748C24.3939 18.8893 24.404 18.9038 24.4142 18.9183C24.4689 18.9967 24.5231 19.0749 24.5767 19.153C23.8795 19.9611 23.1434 20.7657 22.3666 21.5603L21.6253 22.3042C20.7989 23.1173 19.9646 23.8864 19.1269 24.6106C18.0837 25.5125 17.0379 26.3427 16.0024 27.0954C13.8149 28.6854 11.6737 29.9297 9.7146 30.7657C7.9008 31.5397 6.21046 31.9781 4.76357 31.9992C3.31675 32.0202 2.04537 31.6219 1.18054 30.642L1.02571 30.4534C0.28227 29.4901 0.0373669 28.1994 0.151663 26.772C0.273668 25.2496 0.806696 23.5016 1.66548 21.646C2.47956 19.887 3.60175 18.0011 4.98374 16.0843C5.71989 15.0633 6.53119 14.0318 7.40873 13.006C8.3639 11.8895 9.39773 10.7795 10.5035 9.69157L11.2587 8.96324C11.8001 8.45096 12.3445 7.95721 12.89 7.48289C13.9269 6.58125 14.9676 5.74984 15.9983 4.995C18.3562 3.26834 20.6632 1.94132 22.7516 1.09169Z" fill="white"/>
<path fill-rule="evenodd" clip-rule="evenodd" d="M15.9999 22.2613C14.9414 23.1361 13.894 23.9208 12.8767 24.6102C11.3748 25.6277 9.93672 26.4386 8.62618 27.0237C8.52706 27.0679 8.42867 27.1109 8.33103 27.1526C6.76297 27.8216 5.54378 28.0903 4.71278 28.1024C4.19531 28.1099 3.96652 28.0192 3.8887 27.9778C3.85512 27.8927 3.78621 27.6454 3.82972 27.1015C3.89978 26.2269 4.23806 24.9604 4.98064 23.3561C5.58366 22.0534 6.40634 20.6322 7.42339 19.153C8.11494 18.1472 8.89584 17.1131 9.76356 16.0724C9.95647 15.8411 10.1536 15.6093 10.3548 15.3774C11.1747 14.4324 12.0633 13.4842 13.0158 12.547C14.0091 11.5697 15.0095 10.6659 15.9999 9.84135C16.9907 10.6661 17.9906 11.5694 18.9842 12.5471C20.171 13.7149 21.258 14.8982 22.2372 16.0727C21.2907 17.1984 20.2456 18.3338 19.1088 19.4523C18.0741 20.4703 17.0308 21.4093 15.9999 22.2613ZM27.0194 23.3562C26.4165 22.0539 25.5933 20.6318 24.5767 19.153C23.8795 19.9611 23.1434 20.7657 22.3666 21.5603L21.6253 22.3042C20.7989 23.1173 19.9646 23.8864 19.1269 24.6106C20.7417 25.7045 22.281 26.5604 23.669 27.1527C25.237 27.8217 26.4562 28.0904 27.2872 28.1025C27.8047 28.11 28.0335 28.0193 28.1113 27.9779C28.1449 27.8929 28.2146 27.6456 28.1711 27.1017C28.101 26.227 27.7619 24.9605 27.0194 23.3562ZM22.2854 30.7658C20.3272 29.9302 18.1888 28.6845 16.0024 27.0954C13.8149 28.6854 11.6737 29.9297 9.7146 30.7657C7.9008 31.5397 6.21046 31.9781 4.76357 31.9992C3.31675 32.0202 2.04537 31.6219 1.18054 30.642L1.02571 30.4534C0.28227 29.4901 0.0373669 28.1994 0.151663 26.772C0.273668 25.2496 0.806696 23.5016 1.66548 21.646C2.47956 19.887 3.60175 18.0011 4.98374 16.0843C5.71989 15.0633 6.53119 14.0318 7.40873 13.006C8.3639 11.8895 9.39773 10.7795 10.5035 9.69157L11.2587 8.96324C11.8001 8.45096 12.3445 7.95721 12.89 7.48289C13.9269 6.58125 14.9676 5.74984 15.9983 4.995C18.3562 3.26834 20.6632 1.94132 22.7516 1.09169C24.4906 0.384255 26.1086 -0.0050268 27.4971 4.90187e-05C28.8868 0.00517998 30.1064 0.408225 30.9441 1.35724L30.9572 1.37368L31.085 1.52851L31.0973 1.54408C31.8555 2.52577 32.0955 3.84277 31.9672 5.29907C31.8387 6.75665 31.3389 8.418 30.5403 10.1794C29.6962 12.0408 28.5011 14.0463 27.0154 16.0856C28.3972 18.0025 29.5201 19.8864 30.3345 21.6461C31.1933 23.5017 31.7263 25.2497 31.8483 26.7721C31.9626 28.1994 31.7177 29.4903 30.9743 30.4536L30.8195 30.6421C29.9546 31.6221 28.6833 32.0195 27.2364 31.9985C25.7895 31.9774 24.0992 31.5398 22.2854 30.7658ZM27.1432 8.64319C26.5183 9.99302 25.6584 11.4703 24.5898 13.0071C23.6359 11.8921 22.6052 10.7819 21.5006 9.69514L20.7454 8.96681C20.204 8.45449 19.6544 7.9579 19.1089 7.48355C20.7748 6.34304 22.3645 5.45621 23.7928 4.84668C25.3609 4.17757 26.5815 3.90985 27.4127 3.89777C27.9292 3.89031 28.1578 3.98092 28.2359 4.02233C28.2695 4.10749 28.3393 4.35465 28.2957 4.89858C28.2257 5.77296 27.8859 7.0385 27.1432 8.64319Z" fill="white"/>
<path d="M48.3704 25.0099C47.7944 25.0085 47.2667 24.8633 46.7874 24.5743C46.3241 24.2852 45.9489 23.9084 45.662 23.4437C45.391 22.9791 45.2562 22.4588 45.2575 21.8828L45.2691 16.7468L56.8131 16.773L56.8187 14.301C56.8191 14.141 56.7634 14.0049 56.6516 13.8926C56.5399 13.7643 56.4041 13.7 56.2441 13.6997L45.2761 13.6748L45.282 11.0828L56.322 11.1078C56.898 11.1092 57.4176 11.2543 57.881 11.5434C58.3604 11.8165 58.7355 12.1933 59.0064 12.6739C59.2933 13.1546 59.4361 13.6749 59.4349 14.2349L59.4104 25.0349L48.3704 25.0099ZM48.4483 22.418L56.8003 22.437L56.8076 19.197L47.8556 19.1767L47.8497 21.8167C47.8493 21.9767 47.905 22.1208 48.0167 22.249C48.1444 22.3613 48.2883 22.4177 48.4483 22.418ZM65.1662 25.0479C64.5903 25.0466 64.0706 24.9014 63.6072 24.6124C63.1439 24.3233 62.7687 23.9465 62.4818 23.4818C62.1948 23.0172 62.052 22.4969 62.0533 21.9209L62.0541 21.5609L64.6461 21.5667L64.6455 21.8547C64.6451 22.0147 64.7008 22.1589 64.8125 22.2871C64.9403 22.3994 65.0841 22.4557 65.2441 22.4561L73.0201 22.4737C73.1801 22.4741 73.3162 22.4184 73.4285 22.3067C73.5408 22.1789 73.5971 22.035 73.5975 21.875L73.6017 20.003C73.6021 19.843 73.5464 19.7069 73.4346 19.5947C73.3229 19.4664 73.1871 19.4021 73.0271 19.4017L65.1791 19.3839C64.6031 19.3826 64.0834 19.2455 63.62 18.9724C63.1567 18.6834 62.7815 18.3065 62.4946 17.8419C62.2077 17.3612 62.0649 16.8329 62.0662 16.2569L62.0707 14.2409C62.072 13.6649 62.2172 13.1452 62.5063 12.6819C62.7953 12.2185 63.1722 11.8434 63.6368 11.5564C64.1015 11.2695 64.6218 11.1267 65.1978 11.128L73.1178 11.1459C73.6938 11.1472 74.2135 11.2924 74.6768 11.5815C75.1562 11.8706 75.5313 12.2474 75.8022 12.712C76.0892 13.1767 76.232 13.697 76.2307 14.273L76.2299 14.633L73.6139 14.6271L73.6146 14.3391C73.6149 14.1791 73.5592 14.0429 73.4475 13.9307C73.3358 13.8024 73.1999 13.7381 73.0399 13.7378L65.2639 13.7201C65.1039 13.7198 64.9598 13.7834 64.8315 13.9111C64.7192 14.0229 64.6629 14.1588 64.6626 14.3188L64.6583 16.1908C64.658 16.3508 64.7136 16.4949 64.8253 16.6231C64.9531 16.7354 65.097 16.7918 65.257 16.7921L73.1049 16.8099C73.6809 16.8112 74.2006 16.9564 74.664 17.2454C75.1433 17.5185 75.5185 17.8954 75.7894 18.376C76.0764 18.8407 76.2192 19.361 76.2179 19.937L76.2133 21.953C76.212 22.529 76.0668 23.0486 75.7778 23.512C75.5047 23.9754 75.1279 24.3505 74.6472 24.6374C74.1826 24.9244 73.6622 25.0672 73.0862 25.0659L65.1662 25.0479ZM82.4593 25.0871C81.8833 25.0858 81.3557 24.9406 80.8763 24.6516C80.413 24.3625 80.0378 23.9857 79.7509 23.521C79.4799 23.0564 79.3451 22.5361 79.3464 21.9601L79.3809 6.76812L81.9728 6.77399L81.9629 11.166L87.6749 11.1789L87.669 13.7709L81.957 13.758L81.9386 21.894C81.9382 22.054 81.9939 22.1981 82.1056 22.3263C82.2333 22.4386 82.3772 22.495 82.5372 22.4953L87.6492 22.5069L87.6433 25.0989L82.4593 25.0871ZM90.3244 25.105L90.3489 14.305C90.3502 13.729 90.4953 13.2093 90.7844 12.746C91.0734 12.2826 91.4503 11.9075 91.915 11.6205C92.3956 11.3336 92.9159 11.1908 93.4759 11.1921L101.252 11.2097L101.246 13.8017L93.542 13.7842C93.382 13.7839 93.2379 13.8476 93.1096 13.9753C92.9974 14.087 92.9411 14.2229 92.9407 14.3829L92.9164 25.1109L90.3244 25.105ZM106.515 25.1417C105.939 25.1404 105.42 24.9952 104.956 24.7062C104.493 24.4171 104.118 24.0402 103.831 23.5756C103.544 23.1109 103.401 22.5906 103.402 22.0146L103.42 14.3346C103.421 13.7586 103.566 13.239 103.855 12.7756C104.144 12.3123 104.521 11.9371 104.986 11.6502C105.451 11.3632 105.971 11.2204 106.547 11.2217L114.467 11.2397C115.043 11.241 115.563 11.3862 116.026 11.6752C116.505 11.9483 116.88 12.3252 117.151 12.8058C117.438 13.2864 117.581 13.8067 117.58 14.3667L117.562 22.0467C117.561 22.6227 117.416 23.1424 117.127 23.6057C116.854 24.0691 116.477 24.4443 115.996 24.7312C115.532 25.0181 115.011 25.161 114.435 25.1596L106.515 25.1417ZM106.593 22.5499L114.369 22.5675C114.529 22.5679 114.665 22.5122 114.778 22.4004C114.89 22.2727 114.946 22.1288 114.947 21.9688L114.964 14.4328C114.964 14.2728 114.908 14.1367 114.797 14.0244C114.685 13.8962 114.549 13.8319 114.389 13.8315L106.613 13.8139C106.453 13.8135 106.309 13.8772 106.181 14.0049C106.068 14.1166 106.012 14.2525 106.012 14.4125L105.995 21.9485C105.994 22.1085 106.05 22.2526 106.162 22.3809C106.289 22.4932 106.433 22.5495 106.593 22.5499ZM120.711 25.1739L120.753 6.69392L123.345 6.6998L123.334 11.2598L131.782 11.2789C132.358 11.2802 132.878 11.4254 133.341 11.7145C133.821 12.0036 134.196 12.3804 134.467 12.845C134.754 13.3097 134.896 13.83 134.895 14.406L134.878 22.086C134.876 22.662 134.731 23.1817 134.442 23.645C134.169 24.1084 133.792 24.4835 133.312 24.7704C132.847 25.0574 132.327 25.2002 131.751 25.1989L120.711 25.1739ZM123.909 22.5891L131.685 22.6067C131.845 22.6071 131.981 22.5514 132.093 22.4397C132.221 22.312 132.286 22.1681 132.286 22.0081L132.303 14.4721C132.303 14.3121 132.24 14.176 132.112 14.0637C132 13.9354 131.864 13.8711 131.704 13.8708L123.928 13.8531C123.768 13.8528 123.624 13.9164 123.496 14.0442C123.384 14.1559 123.327 14.2918 123.327 14.4518L123.31 21.9878C123.31 22.1478 123.365 22.2919 123.477 22.4201C123.605 22.5324 123.749 22.5888 123.909 22.5891ZM140.51 25.2188C139.934 25.2175 139.415 25.0723 138.951 24.7832C138.488 24.4942 138.113 24.1173 137.826 23.6527C137.539 23.188 137.396 22.6677 137.398 22.0917L137.432 6.73174L140.024 6.73762L139.99 22.0256C139.989 22.1856 140.045 22.3297 140.157 22.458C140.284 22.5702 140.428 22.6266 140.588 22.6269L143.108 22.6326L143.102 25.2246L140.51 25.2188ZM148.706 25.2373C148.13 25.236 147.611 25.0909 147.147 24.8018C146.684 24.5128 146.309 24.1359 146.022 23.6713C145.735 23.2066 145.592 22.6863 145.594 22.1103L145.611 14.4303C145.612 13.8543 145.757 13.3346 146.047 12.8713C146.336 12.4079 146.712 12.0328 147.177 11.7458C147.642 11.4589 148.162 11.3161 148.738 11.3174L156.658 11.3353C157.234 11.3366 157.754 11.4818 158.217 11.7709C158.696 12.044 159.072 12.4208 159.342 12.9014C159.629 13.3821 159.772 13.9024 159.771 14.4624L159.754 22.1424C159.752 22.7184 159.607 23.2381 159.318 23.7014C159.045 24.1648 158.668 24.5399 158.187 24.8268C157.723 25.1138 157.202 25.2566 156.626 25.2553L148.706 25.2373ZM148.784 22.6455L156.56 22.6631C156.72 22.6635 156.856 22.6078 156.969 22.4961C157.081 22.3683 157.137 22.2245 157.138 22.0645L157.155 14.5285C157.155 14.3685 157.099 14.2323 156.988 14.1201C156.876 13.9918 156.74 13.9275 156.58 13.9272L148.804 13.9095C148.644 13.9092 148.5 13.9729 148.372 14.1006C148.259 14.2123 148.203 14.3482 148.203 14.5082L148.186 22.0442C148.185 22.2042 148.241 22.3483 148.353 22.4765C148.48 22.5888 148.624 22.6452 148.784 22.6455ZM165.119 30.7706L165.125 28.1546L173.645 28.1739C173.805 28.1743 173.941 28.1106 174.054 27.9828C174.182 27.8711 174.246 27.7353 174.246 27.5753L174.252 25.2953L165.804 25.2761C165.244 25.2748 164.724 25.1377 164.245 24.8646C163.765 24.5755 163.382 24.1906 163.095 23.71C162.824 23.2294 162.689 22.709 162.691 22.149L162.708 14.4691C162.709 13.8931 162.855 13.3734 163.144 12.9101C163.433 12.4467 163.81 12.0716 164.274 11.7846C164.755 11.4977 165.275 11.3549 165.835 11.3561L173.755 11.3741C174.331 11.3754 174.851 11.5206 175.314 11.8096C175.794 12.0987 176.169 12.4756 176.44 12.9402C176.727 13.4048 176.869 13.9252 176.868 14.5012L176.838 27.6771C176.837 28.2531 176.692 28.7728 176.403 29.2362C176.13 29.7155 175.753 30.0907 175.272 30.3616C174.807 30.6485 174.287 30.7914 173.711 30.7901L165.119 30.7706ZM165.881 22.6843L173.657 22.7019C173.817 22.7023 173.954 22.6466 174.066 22.5348C174.194 22.4071 174.258 22.2633 174.259 22.1033L174.276 14.5673C174.276 14.4073 174.213 14.2712 174.085 14.1589C173.973 14.0306 173.837 13.9663 173.677 13.9659L165.901 13.9483C165.741 13.9479 165.597 14.0116 165.469 14.1393C165.357 14.2511 165.3 14.3869 165.3 14.5469L165.283 22.0829C165.282 22.2429 165.338 22.3871 165.45 22.5153C165.578 22.6276 165.721 22.6839 165.881 22.6843Z" fill="white"/>
</svg>
