<svg width="180" height="32" viewBox="0 0 180 32" fill="none" xmlns="http://www.w3.org/2000/svg">
<path fill-rule="evenodd" clip-rule="evenodd" d="M4.98374 16.0843C5.71989 15.0633 6.53119 14.0318 7.40873 13.006C6.34059 11.4693 5.48156 9.99284 4.85684 8.6433C4.11411 7.03864 3.77434 5.77308 3.70427 4.89868C3.66072 4.35475 3.73046 4.10759 3.76407 4.02243C3.84219 3.98105 4.07065 3.88956 4.58733 3.89701C5.41847 3.9091 6.63907 4.17767 8.20722 4.84678C9.63546 5.4563 11.2241 6.34289 12.89 7.48289C13.9269 6.58125 14.9676 5.74984 15.9983 4.995C13.6412 3.26911 11.3362 1.94118 9.24838 1.09179C7.50939 0.384355 5.89144 -0.0049232 4.50295 0.000157234C3.11315 0.00528833 1.89356 0.408277 1.05591 1.35735L1.0428 1.37379L0.915012 1.52862L0.902723 1.54419C0.144485 2.5259 -0.0955429 3.84284 0.0327702 5.29918C0.161289 6.75686 0.661795 8.41797 1.46058 10.1795C2.30483 12.0414 3.49883 14.0456 4.98374 16.0843Z" fill="white"/>
<path fill-rule="evenodd" clip-rule="evenodd" d="M22.7516 1.09169C24.4906 0.384255 26.1086 -0.0050268 27.4971 4.90187e-05C28.8868 0.00517998 30.1064 0.408225 30.9441 1.35724L30.9572 1.37368L31.085 1.52851L31.0973 1.54408C31.8555 2.52577 32.0955 3.84277 31.9672 5.29907C31.8387 6.75665 31.3389 8.418 30.5403 10.1794C29.6962 12.0408 28.5011 14.0463 27.0154 16.0856C26.2789 15.0641 25.4681 14.0335 24.5898 13.0071C25.6584 11.4703 26.5183 9.99302 27.1432 8.64319C27.8859 7.0385 28.2257 5.77296 28.2957 4.89858C28.3393 4.35465 28.2695 4.10749 28.2359 4.02233C28.1578 3.98092 27.9292 3.89031 27.4127 3.89777C26.5815 3.90985 25.3609 4.17757 23.7928 4.84668C22.3645 5.45621 20.7748 6.34304 19.1089 7.48355C18.0952 8.17728 17.0527 8.96494 15.9999 9.84135C15.0095 10.6659 14.0091 11.5697 13.0158 12.547C12.0633 13.4842 11.1747 14.4324 10.3548 15.3774C10.1536 15.6093 9.95647 15.8411 9.76356 16.0724C8.89584 17.1131 8.11494 18.1472 7.42339 19.153C6.40634 20.6322 5.58366 22.0534 4.98064 23.3561C4.23806 24.9604 3.89978 26.2269 3.82972 27.1015C3.78621 27.6454 3.85512 27.8927 3.8887 27.9778C3.96652 28.0192 4.19531 28.1099 4.71278 28.1024C5.54378 28.0903 6.76297 27.8216 8.33103 27.1526C8.42867 27.1109 8.52706 27.0679 8.62618 27.0237C9.93672 26.4386 11.3748 25.6277 12.8767 24.6102C13.894 23.9208 14.9414 23.1361 15.9999 22.2613C17.0308 21.4093 18.0741 20.4703 19.1088 19.4523C20.2456 18.3338 21.2907 17.1984 22.2372 16.0727C22.4661 16.3473 22.6898 16.6224 22.9065 16.8957C23.4354 17.5624 23.928 18.2241 24.3837 18.8748C24.3939 18.8893 24.404 18.9038 24.4142 18.9183C24.4689 18.9967 24.5231 19.0749 24.5767 19.153C23.8795 19.9611 23.1434 20.7657 22.3666 21.5603L21.6253 22.3042C20.7989 23.1173 19.9646 23.8864 19.1269 24.6106C18.0837 25.5125 17.0379 26.3427 16.0024 27.0954C13.8149 28.6854 11.6737 29.9297 9.7146 30.7657C7.9008 31.5397 6.21046 31.9781 4.76357 31.9992C3.31675 32.0202 2.04537 31.6219 1.18054 30.642L1.02571 30.4534C0.28227 29.4901 0.0373669 28.1994 0.151663 26.772C0.273668 25.2496 0.806696 23.5016 1.66548 21.646C2.47956 19.887 3.60175 18.0011 4.98374 16.0843C5.71989 15.0633 6.53119 14.0318 7.40873 13.006C8.3639 11.8895 9.39773 10.7795 10.5035 9.69157L11.2587 8.96324C11.8001 8.45096 12.3445 7.95721 12.89 7.48289C13.9269 6.58125 14.9676 5.74984 15.9983 4.995C18.3562 3.26834 20.6632 1.94132 22.7516 1.09169Z" fill="white"/>
<path fill-rule="evenodd" clip-rule="evenodd" d="M15.9999 22.2613C14.9414 23.1361 13.894 23.9208 12.8767 24.6102C11.3748 25.6277 9.93672 26.4386 8.62618 27.0237C8.52706 27.0679 8.42867 27.1109 8.33103 27.1526C6.76297 27.8216 5.54378 28.0903 4.71278 28.1024C4.19531 28.1099 3.96652 28.0192 3.8887 27.9778C3.85512 27.8927 3.78621 27.6454 3.82972 27.1015C3.89978 26.2269 4.23806 24.9604 4.98064 23.3561C5.58366 22.0534 6.40634 20.6322 7.42339 19.153C8.11494 18.1472 8.89584 17.1131 9.76356 16.0724C9.95647 15.8411 10.1536 15.6093 10.3548 15.3774C11.1747 14.4324 12.0633 13.4842 13.0158 12.547C14.0091 11.5697 15.0095 10.6659 15.9999 9.84135C16.9907 10.6661 17.9906 11.5694 18.9842 12.5471C20.171 13.7149 21.258 14.8982 22.2372 16.0727C21.2907 17.1984 20.2456 18.3338 19.1088 19.4523C18.0741 20.4703 17.0308 21.4093 15.9999 22.2613ZM27.0194 23.3562C26.4165 22.0539 25.5933 20.6318 24.5767 19.153C23.8795 19.9611 23.1434 20.7657 22.3666 21.5603L21.6253 22.3042C20.7989 23.1173 19.9646 23.8864 19.1269 24.6106C20.7417 25.7045 22.281 26.5604 23.669 27.1527C25.237 27.8217 26.4562 28.0904 27.2872 28.1025C27.8047 28.11 28.0335 28.0193 28.1113 27.9779C28.1449 27.8929 28.2146 27.6456 28.1711 27.1017C28.101 26.227 27.7619 24.9605 27.0194 23.3562ZM22.2854 30.7658C20.3272 29.9302 18.1888 28.6845 16.0024 27.0954C13.8149 28.6854 11.6737 29.9297 9.7146 30.7657C7.9008 31.5397 6.21046 31.9781 4.76357 31.9992C3.31675 32.0202 2.04537 31.6219 1.18054 30.642L1.02571 30.4534C0.28227 29.4901 0.0373669 28.1994 0.151663 26.772C0.273668 25.2496 0.806696 23.5016 1.66548 21.646C2.47956 19.887 3.60175 18.0011 4.98374 16.0843C5.71989 15.0633 6.53119 14.0318 7.40873 13.006C8.3639 11.8895 9.39773 10.7795 10.5035 9.69157L11.2587 8.96324C11.8001 8.45096 12.3445 7.95721 12.89 7.48289C13.9269 6.58125 14.9676 5.74984 15.9983 4.995C18.3562 3.26834 20.6632 1.94132 22.7516 1.09169C24.4906 0.384255 26.1086 -0.0050268 27.4971 4.90187e-05C28.8868 0.00517998 30.1064 0.408225 30.9441 1.35724L30.9572 1.37368L31.085 1.52851L31.0973 1.54408C31.8555 2.52577 32.0955 3.84277 31.9672 5.29907C31.8387 6.75665 31.3389 8.418 30.5403 10.1794C29.6962 12.0408 28.5011 14.0463 27.0154 16.0856C28.3972 18.0025 29.5201 19.8864 30.3345 21.6461C31.1933 23.5017 31.7263 25.2497 31.8483 26.7721C31.9626 28.1994 31.7177 29.4903 30.9743 30.4536L30.8195 30.6421C29.9546 31.6221 28.6833 32.0195 27.2364 31.9985C25.7895 31.9774 24.0992 31.5398 22.2854 30.7658ZM27.1432 8.64319C26.5183 9.99302 25.6584 11.4703 24.5898 13.0071C23.6359 11.8921 22.6052 10.7819 21.5006 9.69514L20.7454 8.96681C20.204 8.45449 19.6544 7.9579 19.1089 7.48355C20.7748 6.34304 22.3645 5.45621 23.7928 4.84668C25.3609 4.17757 26.5815 3.90985 27.4127 3.89777C27.9292 3.89031 28.1578 3.98092 28.2359 4.02233C28.2695 4.10749 28.3393 4.35465 28.2957 4.89858C28.2257 5.77296 27.8859 7.0385 27.1432 8.64319Z" fill="white"/>
<path d="M48.4664 25.0101C47.8744 25.0087 47.3307 24.8635 46.8354 24.5744C46.3561 24.2693 45.973 23.8764 45.6861 23.3958C45.3992 22.9151 45.2564 22.3788 45.2577 21.7868L45.2695 16.6028L56.5494 16.6284L56.5544 14.4204C56.5547 14.2924 56.507 14.1883 56.4112 14.1081C56.3314 14.0119 56.2275 13.9636 56.0995 13.9633L45.2755 13.9388L45.282 11.0828L56.202 11.1076C56.81 11.109 57.3536 11.2622 57.8329 11.5673C58.3123 11.8564 58.6954 12.2412 58.9823 12.7219C59.2692 13.2025 59.412 13.7389 59.4107 14.3309L59.3864 25.0348L48.4664 25.0101ZM48.5689 22.1543L56.5369 22.1724L56.5435 19.2444L48.1195 19.2253L48.1139 21.6973C48.1136 21.8253 48.1534 21.9374 48.2332 22.0335C48.329 22.1138 48.4409 22.154 48.5689 22.1543ZM65.2388 25.0481C64.6468 25.0468 64.1111 24.9015 63.6318 24.6125C63.1525 24.3074 62.7614 23.9145 62.4585 23.4338C62.1716 22.9531 62.0288 22.4168 62.0301 21.8248L62.0311 21.3688L64.8871 21.3753L64.8863 21.7353C64.886 21.8633 64.9258 21.9754 65.0056 22.0716C65.1014 22.1518 65.2133 22.192 65.3413 22.1923L72.8533 22.2094C72.9813 22.2096 73.0854 22.1699 73.1655 22.0901C73.2618 21.9943 73.31 21.8824 73.3103 21.7544L73.3143 19.9784C73.3146 19.8664 73.2668 19.7703 73.171 19.6901C73.0912 19.5939 72.9873 19.5457 72.8593 19.5454L65.2513 19.5281C64.6593 19.5268 64.1237 19.3816 63.6443 19.0925C63.165 18.7874 62.7739 18.3945 62.471 17.9138C62.1841 17.4332 62.0413 16.8968 62.0426 16.3048L62.0471 14.3368C62.0484 13.7448 62.1936 13.2092 62.4827 12.7298C62.7878 12.2505 63.1807 11.8674 63.6613 11.5805C64.142 11.2776 64.6784 11.1268 65.2704 11.1281L72.9744 11.1456C73.5824 11.147 74.126 11.3002 74.6053 11.6053C75.0847 11.8944 75.4678 12.2793 75.7547 12.7599C76.0576 13.2406 76.2084 13.7769 76.2071 14.3689L76.206 14.8249L73.326 14.8184L73.3268 14.4584C73.3271 14.3304 73.2794 14.2263 73.1836 14.1461C73.1038 14.0499 72.9999 14.0017 72.8719 14.0014L65.3599 13.9843C65.2319 13.9841 65.1198 14.0318 65.0236 14.1276C64.9434 14.2074 64.9032 14.3113 64.9029 14.4393L64.8988 16.2153C64.8986 16.3273 64.9383 16.4314 65.0181 16.5276C65.1139 16.6078 65.2259 16.648 65.3539 16.6483L72.9618 16.6656C73.5698 16.667 74.1135 16.8202 74.5928 17.1253C75.0721 17.4144 75.4553 17.7992 75.7422 18.2799C76.0451 18.7606 76.1959 19.2969 76.1945 19.8889L76.1901 21.8569C76.1887 22.4489 76.0355 22.9846 75.7304 23.4639C75.4413 23.9432 75.0565 24.3344 74.5758 24.6373C74.0951 24.9242 73.5508 25.0669 72.9428 25.0656L65.2388 25.0481ZM82.5319 25.0873C81.9399 25.086 81.3962 24.9407 80.9009 24.6516C80.4216 24.3465 80.0385 23.9537 79.7515 23.473C79.4646 22.9923 79.3218 22.456 79.3232 21.864L79.3573 6.81606L82.2133 6.82254L82.2035 11.1665L87.7714 11.1792L87.765 14.0351L82.197 14.0225L82.1794 21.7745C82.1791 21.9025 82.2189 22.0146 82.2986 22.1108C82.3945 22.191 82.5064 22.2312 82.6344 22.2315L87.7464 22.2431L87.7399 25.0991L82.5319 25.0873ZM90.4884 25.1053L90.5127 14.4014C90.514 13.8094 90.6593 13.2737 90.9483 12.7944C91.2534 12.315 91.6463 11.9319 92.127 11.645C92.6236 11.3422 93.16 11.1914 93.736 11.1927L101.488 11.2103L101.481 14.0662L93.8255 14.0489C93.6975 14.0486 93.5854 14.0963 93.4892 14.1921C93.409 14.2719 93.3688 14.3759 93.3685 14.5039L93.3444 25.1118L90.4884 25.1053ZM106.846 25.1424C106.254 25.1411 105.718 24.9959 105.239 24.7068C104.759 24.4017 104.368 24.0088 104.065 23.5281C103.778 23.0475 103.636 22.5112 103.637 21.9192L103.654 14.4312C103.655 13.8392 103.801 13.3035 104.09 12.8242C104.395 12.3448 104.788 11.9617 105.268 11.6748C105.749 11.3719 106.285 11.2211 106.877 11.2225L114.581 11.2399C115.189 11.2413 115.733 11.3945 116.212 11.6996C116.692 11.9887 117.075 12.3736 117.362 12.8542C117.649 13.3349 117.791 13.8712 117.79 14.4632L117.773 21.9512C117.772 22.5432 117.626 23.0789 117.337 23.5582C117.048 24.0376 116.663 24.4287 116.183 24.7316C115.702 25.0185 115.158 25.1613 114.55 25.1599L106.846 25.1424ZM106.948 22.2867L114.46 22.3037C114.588 22.304 114.692 22.2642 114.772 22.1844C114.869 22.0886 114.917 21.9767 114.917 21.8487L114.934 14.5527C114.934 14.4247 114.886 14.3206 114.79 14.2404C114.711 14.1442 114.607 14.096 114.479 14.0957L106.967 14.0787C106.839 14.0784 106.727 14.1261 106.63 14.2219C106.55 14.3017 106.51 14.4056 106.51 14.5336L106.493 21.8296C106.493 21.9576 106.533 22.0697 106.612 22.1659C106.708 22.2461 106.82 22.2864 106.948 22.2867ZM120.922 25.1744L120.964 6.6944L123.82 6.70087L123.809 11.2609L131.897 11.2792C132.473 11.2805 133.001 11.4337 133.48 11.7388C133.976 12.0279 134.367 12.4128 134.654 12.8935C134.94 13.3741 135.083 13.9104 135.082 14.5024L135.065 21.9904C135.064 22.5824 134.918 23.1181 134.629 23.5974C134.34 24.0768 133.947 24.4679 133.451 24.7708C132.97 25.0577 132.442 25.2005 131.866 25.1992L120.922 25.1744ZM124.24 22.3259L131.776 22.343C131.888 22.3432 131.984 22.3034 132.064 22.2236C132.161 22.1278 132.209 22.0159 132.209 21.8879L132.226 14.592C132.226 14.464 132.178 14.3598 132.082 14.2796C132.003 14.1834 131.907 14.1352 131.795 14.135L124.259 14.1179C124.147 14.1176 124.043 14.1654 123.946 14.2612C123.85 14.341 123.802 14.4449 123.802 14.5729L123.785 21.8688C123.785 21.9968 123.833 22.1089 123.928 22.2052C124.024 22.2854 124.128 22.3256 124.24 22.3259ZM140.817 25.2195C140.225 25.2181 139.69 25.0729 139.21 24.7838C138.731 24.4787 138.34 24.0858 138.037 23.6052C137.75 23.1245 137.607 22.5882 137.609 21.9962L137.643 6.70822L140.523 6.71475L140.489 21.9067C140.489 22.0347 140.528 22.1468 140.608 22.243C140.704 22.3232 140.808 22.3634 140.92 22.3637L143.512 22.3696L143.505 25.2256L140.817 25.2195ZM149.224 25.2385C148.632 25.2372 148.097 25.092 147.617 24.8029C147.138 24.4978 146.747 24.1049 146.444 23.6242C146.157 23.1436 146.014 22.6072 146.016 22.0152L146.033 14.5273C146.034 13.9353 146.179 13.3996 146.468 12.9202C146.773 12.4409 147.166 12.0578 147.647 11.7709C148.128 11.468 148.664 11.3172 149.256 11.3186L156.96 11.336C157.568 11.3374 158.112 11.4906 158.591 11.7957C159.07 12.0848 159.453 12.4697 159.74 12.9503C160.027 13.431 160.17 13.9673 160.169 14.5593L160.152 22.0473C160.15 22.6393 160.005 23.175 159.716 23.6543C159.427 24.1337 159.042 24.5248 158.561 24.8277C158.081 25.1146 157.536 25.2574 156.928 25.256L149.224 25.2385ZM149.327 22.3827L156.839 22.3998C156.967 22.4001 157.071 22.3603 157.151 22.2805C157.247 22.1847 157.296 22.0728 157.296 21.9448L157.312 14.6488C157.313 14.5208 157.265 14.4167 157.169 14.3365C157.089 14.2403 156.985 14.1921 156.857 14.1918L149.345 14.1748C149.217 14.1745 149.105 14.2222 149.009 14.318C148.929 14.3978 148.889 14.5017 148.888 14.6297L148.872 21.9257C148.872 22.0537 148.911 22.1658 148.991 22.262C149.087 22.3422 149.199 22.3825 149.327 22.3827ZM165.469 30.7714L165.476 27.8914L173.948 27.9106C174.06 27.9108 174.156 27.8631 174.236 27.7672C174.332 27.6875 174.38 27.5836 174.381 27.4556L174.385 25.2956L166.321 25.2773C165.745 25.276 165.21 25.1308 164.714 24.8416C164.235 24.5366 163.844 24.1437 163.541 23.663C163.254 23.1823 163.111 22.646 163.113 22.054L163.13 14.566C163.131 13.974 163.276 13.4384 163.565 12.959C163.871 12.4797 164.263 12.0966 164.744 11.8097C165.241 11.5068 165.777 11.356 166.353 11.3573L174.081 11.3748C174.673 11.3762 175.209 11.5294 175.688 11.8345C176.183 12.1236 176.566 12.5085 176.837 12.9891C177.124 13.4698 177.267 14.0061 177.266 14.5981L177.236 27.582C177.235 28.174 177.09 28.7097 176.801 29.1891C176.528 29.6844 176.143 30.0756 175.646 30.3624C175.165 30.6494 174.629 30.7921 174.037 30.7908L165.469 30.7714ZM166.424 22.4215L173.96 22.4386C174.072 22.4389 174.168 22.3991 174.248 22.3193C174.344 22.2235 174.393 22.1116 174.393 21.9836L174.41 14.6876C174.41 14.5596 174.362 14.4555 174.266 14.3753C174.186 14.2791 174.091 14.2309 173.979 14.2306L166.443 14.2135C166.315 14.2132 166.202 14.261 166.106 14.3568C166.026 14.4366 165.986 14.5405 165.986 14.6685L165.969 21.9645C165.969 22.0925 166.008 22.2046 166.088 22.3008C166.184 22.381 166.296 22.4212 166.424 22.4215Z" fill="white"/>
</svg>
