<svg width="168" height="30" viewBox="0 0 168 30" fill="none" xmlns="http://www.w3.org/2000/svg">
<path d="M0.811078 3.04556C1.84301 1.87492 3.66547 1.75358 5.79838 2.35513C7.91155 2.95128 10.4206 4.27965 13.0005 6.18911C15.5804 4.2797 18.0886 2.95129 20.2017 2.35513C22.2016 1.79105 23.9295 1.8624 24.9878 2.83853L25.19 3.04556L25.1958 3.05142L25.3023 3.18032L25.3072 3.18716C26.2028 4.34852 26.1798 6.16595 25.5259 8.23696C24.8808 10.2799 23.5958 12.648 21.814 15.07C23.5966 17.518 24.8697 19.9071 25.482 21.9538C26.1023 24.0279 26.0709 25.8377 25.0865 26.9547C24.0612 28.1175 22.254 28.2448 20.1402 27.6569C18.0464 27.0744 15.5608 25.7673 13.0005 23.8864C10.4398 25.7677 7.95294 27.0744 5.85893 27.6569C3.7454 28.2447 1.93984 28.1172 0.914593 26.9547C-0.0700577 25.8377 -0.101364 24.0281 0.519085 21.9538C1.1314 19.9072 2.40266 17.5178 4.1851 15.07C2.40352 12.6481 1.11819 10.2797 0.473187 8.23696C-0.18071 6.16579 -0.201867 4.3485 0.69389 3.18716L0.698773 3.18032L0.804242 3.05142L0.811078 3.04556ZM5.88725 17.2204C4.95882 18.5453 4.21521 19.8197 3.67729 20.9831C3.05598 22.3269 2.76394 23.4056 2.70268 24.1706C2.67228 24.5516 2.70187 24.7869 2.73686 24.9225C2.75421 24.9895 2.77361 25.0333 2.78666 25.0583C2.79288 25.0701 2.79793 25.0787 2.80131 25.0836C2.80349 25.0868 2.80594 25.0902 2.80619 25.0905C2.80619 25.0905 2.81058 25.0943 2.81401 25.0973C2.81862 25.1014 2.82663 25.1075 2.83744 25.1149C2.86032 25.1305 2.89953 25.1535 2.96147 25.1764C3.08714 25.2229 3.30697 25.2715 3.6685 25.2663C4.39472 25.2555 5.43358 25.0229 6.74565 24.4626C7.98492 23.9331 9.36417 23.1531 10.8111 22.1491C10.0402 21.4923 9.26789 20.7878 8.50639 20.0377L8.50541 20.0368L7.89506 19.4245L7.89409 19.4235C7.18435 18.6967 6.51449 17.9584 5.88725 17.2204ZM13.0005 9.5895C12.1283 10.309 11.2462 11.1002 10.3726 11.9606C9.3323 12.9853 8.38386 14.0287 7.53373 15.0612C8.35733 16.0528 9.27057 17.0552 10.2691 18.0387C11.2285 18.9836 12.1969 19.8473 13.1529 20.6217C13.7415 21.0986 14.327 21.5424 14.9019 21.9508C16.4528 23.0525 17.9347 23.8984 19.2554 24.4626C20.5674 25.0228 21.6054 25.2556 22.3316 25.2663C22.6935 25.2715 22.9139 25.2229 23.0396 25.1764C23.1016 25.1534 23.1409 25.1305 23.1636 25.1149C23.1747 25.1073 23.1825 25.1014 23.1871 25.0973L23.1997 25.0836C23.2032 25.0786 23.2082 25.0701 23.2144 25.0583C23.2275 25.0332 23.2459 24.9895 23.2632 24.9225C23.2982 24.7869 23.3288 24.5516 23.2984 24.1706C23.2371 23.4056 22.9441 22.327 22.3228 20.9831C21.7499 19.7442 20.9455 18.3783 19.9312 16.9606C19.5249 16.3928 19.0841 15.8165 18.6128 15.237C17.7262 14.1467 16.7263 13.0438 15.6265 11.9606C14.7532 11.1005 13.8725 10.3088 13.0005 9.5895ZM3.56401 4.73403C3.20227 4.72885 2.98359 4.77743 2.85795 4.82388C2.79552 4.84699 2.75474 4.86883 2.73198 4.88443C2.72089 4.89206 2.71296 4.89903 2.70854 4.90298C2.70657 4.90472 2.70366 4.90689 2.70366 4.90689L2.70268 4.90786C2.70268 4.90786 2.70058 4.91161 2.6978 4.91568C2.6943 4.92074 2.68862 4.92973 2.68217 4.94204C2.66905 4.96726 2.64967 5.01074 2.63237 5.07778C2.59742 5.21364 2.56772 5.44895 2.59819 5.82974C2.65947 6.59461 2.95241 7.67329 3.57377 9.01724C4.12974 10.2195 4.90636 11.5394 5.87846 12.9118C6.71409 11.92 7.62667 10.929 8.60991 9.9606L8.61284 9.95962L9.23295 9.35903L9.23491 9.35708C9.76123 8.85847 10.2929 8.38344 10.8228 7.92935C9.3345 6.88687 7.91402 6.08111 6.64213 5.53775C5.3297 4.97715 4.29029 4.74464 3.56401 4.73403ZM22.4361 4.73403C21.7098 4.74469 20.6712 4.9772 19.3589 5.53775C18.0867 6.08117 16.666 6.88652 15.1773 7.92935C15.7072 8.38349 16.2387 8.85843 16.7652 9.35708L16.7681 9.35903L17.3882 9.95962L17.3902 9.9606C18.3731 10.9287 19.2852 11.9203 20.1206 12.9118C21.093 11.5391 21.8702 10.2197 22.4263 9.01724C23.0478 7.67316 23.3416 6.59465 23.4029 5.82974C23.4333 5.44913 23.4036 5.21366 23.3687 5.07778C23.3514 5.01086 23.332 4.96728 23.3189 4.94204C23.3125 4.92975 23.3068 4.92078 23.3033 4.91568C23.3006 4.91175 23.2984 4.90786 23.2984 4.90786L23.2964 4.90689L23.2915 4.90298C23.2871 4.89903 23.2789 4.89189 23.2681 4.88443C23.2454 4.86889 23.2048 4.84679 23.1431 4.82388C23.0175 4.77743 22.7978 4.72885 22.4361 4.73403Z" fill="white"/>
<path d="M38.3679 24C37.7919 24 37.2639 23.856 36.7839 23.568C36.3199 23.28 35.9439 22.904 35.6559 22.44C35.3839 21.976 35.2479 21.456 35.2479 20.88V15.744H46.7919V13.272C46.7919 13.112 46.7359 12.976 46.6239 12.864C46.5119 12.736 46.3759 12.672 46.2159 12.672H35.2479V10.08H46.2879C46.8639 10.08 47.3839 10.224 47.8479 10.512C48.3279 10.784 48.7039 11.16 48.9759 11.64C49.2639 12.12 49.4079 12.64 49.4079 13.2V24H38.3679ZM38.4399 21.408H46.7919V18.168H37.8399V20.808C37.8399 20.968 37.8959 21.112 38.0079 21.24C38.1359 21.352 38.2799 21.408 38.4399 21.408ZM55.1638 24C54.5878 24 54.0678 23.856 53.6038 23.568C53.1398 23.28 52.7638 22.904 52.4758 22.44C52.1878 21.976 52.0438 21.456 52.0438 20.88V20.52H54.6358V20.808C54.6358 20.968 54.6918 21.112 54.8038 21.24C54.9318 21.352 55.0758 21.408 55.2358 21.408H63.0118C63.1718 21.408 63.3078 21.352 63.4198 21.24C63.5318 21.112 63.5878 20.968 63.5878 20.808V18.936C63.5878 18.776 63.5318 18.64 63.4198 18.528C63.3078 18.4 63.1718 18.336 63.0118 18.336H55.1638C54.5878 18.336 54.0678 18.2 53.6038 17.928C53.1398 17.64 52.7638 17.264 52.4758 16.8C52.1878 16.32 52.0438 15.792 52.0438 15.216V13.2C52.0438 12.624 52.1878 12.104 52.4758 11.64C52.7638 11.176 53.1398 10.8 53.6038 10.512C54.0678 10.224 54.5878 10.08 55.1638 10.08H63.0838C63.6598 10.08 64.1798 10.224 64.6438 10.512C65.1238 10.8 65.4998 11.176 65.7718 11.64C66.0598 12.104 66.2038 12.624 66.2038 13.2V13.56H63.5878V13.272C63.5878 13.112 63.5318 12.976 63.4198 12.864C63.3078 12.736 63.1718 12.672 63.0118 12.672H55.2358C55.0758 12.672 54.9318 12.736 54.8038 12.864C54.6918 12.976 54.6358 13.112 54.6358 13.272V15.144C54.6358 15.304 54.6918 15.448 54.8038 15.576C54.9318 15.688 55.0758 15.744 55.2358 15.744H63.0838C63.6598 15.744 64.1798 15.888 64.6438 16.176C65.1238 16.448 65.4998 16.824 65.7718 17.304C66.0598 17.768 66.2038 18.288 66.2038 18.864V20.88C66.2038 21.456 66.0598 21.976 65.7718 22.44C65.4998 22.904 65.1238 23.28 64.6438 23.568C64.1798 23.856 63.6598 24 63.0838 24H55.1638ZM72.4569 24C71.8809 24 71.3529 23.856 70.8729 23.568C70.4089 23.28 70.0329 22.904 69.7449 22.44C69.4729 21.976 69.3369 21.456 69.3369 20.88V5.688H71.9289V10.08H77.6409V12.672H71.9289V20.808C71.9289 20.968 71.9849 21.112 72.0969 21.24C72.2249 21.352 72.3689 21.408 72.5289 21.408H77.6409V24H72.4569ZM80.322 24V13.2C80.322 12.624 80.466 12.104 80.754 11.64C81.042 11.176 81.418 10.8 81.882 10.512C82.362 10.224 82.882 10.08 83.442 10.08H91.218V12.672H83.514C83.354 12.672 83.21 12.736 83.082 12.864C82.97 12.976 82.914 13.112 82.914 13.272V24H80.322ZM96.513 24C95.937 24 95.417 23.856 94.953 23.568C94.489 23.28 94.113 22.904 93.825 22.44C93.537 21.976 93.393 21.456 93.393 20.88V13.2C93.393 12.624 93.537 12.104 93.825 11.64C94.113 11.176 94.489 10.8 94.953 10.512C95.417 10.224 95.937 10.08 96.513 10.08H104.433C105.009 10.08 105.529 10.224 105.993 10.512C106.473 10.784 106.849 11.16 107.121 11.64C107.409 12.12 107.553 12.64 107.553 13.2V20.88C107.553 21.456 107.409 21.976 107.121 22.44C106.849 22.904 106.473 23.28 105.993 23.568C105.529 23.856 105.009 24 104.433 24H96.513ZM96.585 21.408H104.361C104.521 21.408 104.657 21.352 104.769 21.24C104.881 21.112 104.937 20.968 104.937 20.808V13.272C104.937 13.112 104.881 12.976 104.769 12.864C104.657 12.736 104.521 12.672 104.361 12.672H96.585C96.425 12.672 96.281 12.736 96.153 12.864C96.041 12.976 95.985 13.112 95.985 13.272V20.808C95.985 20.968 96.041 21.112 96.153 21.24C96.281 21.352 96.425 21.408 96.585 21.408ZM110.708 24V5.52H113.3V10.08H121.748C122.324 10.08 122.844 10.224 123.308 10.512C123.788 10.8 124.164 11.176 124.436 11.64C124.724 12.104 124.868 12.624 124.868 13.2V20.88C124.868 21.456 124.724 21.976 124.436 22.44C124.164 22.904 123.788 23.28 123.308 23.568C122.844 23.856 122.324 24 121.748 24H110.708ZM113.9 21.408H121.676C121.836 21.408 121.972 21.352 122.084 21.24C122.212 21.112 122.276 20.968 122.276 20.808V13.272C122.276 13.112 122.212 12.976 122.084 12.864C121.972 12.736 121.836 12.672 121.676 12.672H113.9C113.74 12.672 113.596 12.736 113.468 12.864C113.356 12.976 113.3 13.112 113.3 13.272V20.808C113.3 20.968 113.356 21.112 113.468 21.24C113.596 21.352 113.74 21.408 113.9 21.408ZM130.508 24C129.932 24 129.412 23.856 128.948 23.568C128.484 23.28 128.108 22.904 127.82 22.44C127.532 21.976 127.388 21.456 127.388 20.88V5.52H129.98V20.808C129.98 20.968 130.036 21.112 130.148 21.24C130.276 21.352 130.42 21.408 130.58 21.408H133.1V24H130.508ZM138.704 24C138.128 24 137.608 23.856 137.144 23.568C136.68 23.28 136.304 22.904 136.016 22.44C135.728 21.976 135.584 21.456 135.584 20.88V13.2C135.584 12.624 135.728 12.104 136.016 11.64C136.304 11.176 136.68 10.8 137.144 10.512C137.608 10.224 138.128 10.08 138.704 10.08H146.624C147.2 10.08 147.72 10.224 148.184 10.512C148.664 10.784 149.04 11.16 149.312 11.64C149.6 12.12 149.744 12.64 149.744 13.2V20.88C149.744 21.456 149.6 21.976 149.312 22.44C149.04 22.904 148.664 23.28 148.184 23.568C147.72 23.856 147.2 24 146.624 24H138.704ZM138.776 21.408H146.552C146.712 21.408 146.848 21.352 146.96 21.24C147.072 21.112 147.128 20.968 147.128 20.808V13.272C147.128 13.112 147.072 12.976 146.96 12.864C146.848 12.736 146.712 12.672 146.552 12.672H138.776C138.616 12.672 138.472 12.736 138.344 12.864C138.232 12.976 138.176 13.112 138.176 13.272V20.808C138.176 20.968 138.232 21.112 138.344 21.24C138.472 21.352 138.616 21.408 138.776 21.408ZM155.129 29.496V26.88H163.649C163.809 26.88 163.945 26.816 164.057 26.688C164.185 26.576 164.249 26.44 164.249 26.28V24H155.801C155.241 24 154.721 23.864 154.241 23.592C153.761 23.304 153.377 22.92 153.089 22.44C152.817 21.96 152.681 21.44 152.681 20.88V13.2C152.681 12.624 152.825 12.104 153.113 11.64C153.401 11.176 153.777 10.8 154.241 10.512C154.721 10.224 155.241 10.08 155.801 10.08H163.721C164.297 10.08 164.817 10.224 165.281 10.512C165.761 10.8 166.137 11.176 166.409 11.64C166.697 12.104 166.841 12.624 166.841 13.2V26.376C166.841 26.952 166.697 27.472 166.409 27.936C166.137 28.416 165.761 28.792 165.281 29.064C164.817 29.352 164.297 29.496 163.721 29.496H155.129ZM155.873 21.408H163.649C163.809 21.408 163.945 21.352 164.057 21.24C164.185 21.112 164.249 20.968 164.249 20.808V13.272C164.249 13.112 164.185 12.976 164.057 12.864C163.945 12.736 163.809 12.672 163.649 12.672H155.873C155.713 12.672 155.569 12.736 155.441 12.864C155.329 12.976 155.273 13.112 155.273 13.272V20.808C155.273 20.968 155.329 21.112 155.441 21.24C155.569 21.352 155.713 21.408 155.873 21.408Z" fill="white"/>
</svg>
