<svg width="39" height="39" viewBox="0 0 39 39" fill="none" xmlns="http://www.w3.org/2000/svg">
<path fill-rule="evenodd" clip-rule="evenodd" d="M6.07393 19.6027C6.97112 18.3584 7.95989 17.1013 9.02939 15.8511C7.72759 13.9782 6.68065 12.1788 5.91927 10.534C5.01406 8.57834 4.59997 7.03595 4.51458 5.97027C4.4615 5.30735 4.5465 5.00613 4.58746 4.90234C4.68267 4.8519 4.9611 4.7404 5.59081 4.74948C6.60376 4.76421 8.09137 5.09154 10.0026 5.90702C11.7432 6.64987 13.6793 7.73039 15.7097 9.11977C16.9734 8.02089 18.2418 7.00762 19.4979 6.08765C16.6252 3.98423 13.8159 2.36581 11.2715 1.33062C9.15207 0.468433 7.1802 -0.00600016 5.48798 0.000191629C3.79415 0.00644515 2.30778 0.497588 1.28689 1.65427L1.27092 1.6743L1.11517 1.86301L1.10019 1.88198C0.17609 3.07844 -0.11644 4.68346 0.0399399 6.45838C0.196571 8.23492 0.806564 10.2594 1.78008 12.4063C2.80902 14.6754 4.2642 17.1181 6.07393 19.6027Z" fill="#202A3D"/>
<path fill-rule="evenodd" clip-rule="evenodd" d="M27.7285 1.33049C29.8479 0.468311 31.8198 -0.00612641 33.512 5.97416e-05C35.2058 0.0063131 36.6922 0.497524 37.7131 1.65414L37.7291 1.67417L37.8848 1.86288L37.8998 1.88185C38.8239 3.07828 39.1164 4.68337 38.9601 6.45825C38.8034 8.23466 38.1943 10.2594 37.2209 12.4062C36.1922 14.6748 34.7357 17.119 32.925 19.6044C32.0274 18.3594 31.0392 17.1033 29.9689 15.8524C31.2712 13.9795 32.3192 12.179 33.0807 10.5339C33.9859 8.57817 34.4001 7.0358 34.4854 5.97014C34.5385 5.30723 34.4535 5.006 34.4125 4.90221C34.3173 4.85175 34.0388 4.74132 33.4092 4.7504C32.3962 4.76513 30.9086 5.09141 28.9975 5.90689C27.2567 6.64975 25.3193 7.73058 23.2889 9.12057C22.0535 9.96606 20.783 10.926 19.4999 11.9941C18.2929 12.999 17.0736 14.1005 15.8631 15.2916C14.7021 16.4339 13.6192 17.5894 12.6199 18.7412C12.3747 19.0239 12.1344 19.3063 11.8993 19.5883C10.8418 20.8566 9.89008 22.1169 9.04726 23.3427C7.80773 25.1455 6.80509 26.8775 6.07016 28.4652C5.16514 30.4205 4.75285 31.964 4.66747 33.03C4.61445 33.6928 4.69843 33.9942 4.73935 34.0979C4.8342 34.1483 5.11304 34.2589 5.7437 34.2497C6.75648 34.235 8.24237 33.9076 10.1534 33.0922C10.2724 33.0414 10.3924 32.9891 10.5132 32.9351C12.1104 32.222 13.863 31.2338 15.6934 29.9937C16.9333 29.1535 18.2098 28.1971 19.4999 27.131C20.7563 26.0926 22.0279 24.9482 23.2888 23.7075C24.6743 22.3443 25.948 20.9606 27.1016 19.5886C27.3806 19.9232 27.6532 20.2585 27.9174 20.5916C28.5619 21.4042 29.1623 22.2106 29.7176 23.0036C29.73 23.0213 29.7424 23.039 29.7548 23.0567C29.8215 23.1522 29.8875 23.2476 29.9529 23.3427C29.1031 24.3275 28.206 25.3082 27.2593 26.2766L26.3558 27.1833C25.3487 28.1742 24.3319 29.1115 23.311 29.9942C22.0396 31.0934 20.765 32.1052 19.5029 33.0225C16.8369 34.9603 14.2274 36.4768 11.8397 37.4957C9.62911 38.439 7.569 38.9733 5.8056 38.999C4.04229 39.0247 2.49279 38.5392 1.43878 37.345L1.25009 37.1151C0.344017 35.9411 0.0455399 34.368 0.184841 32.6283C0.333534 30.773 0.983162 28.6425 2.02981 26.381C3.02197 24.2373 4.38963 21.9389 6.07393 19.6027C6.97112 18.3584 7.95989 17.1013 9.02939 15.8511C10.1935 14.4903 11.4535 13.1375 12.8011 11.8116L13.7216 10.9239C14.3814 10.2996 15.0449 9.69785 15.7097 9.11977C16.9734 8.02089 18.2418 7.00762 19.4979 6.08765C22.3716 3.98329 25.1833 2.36599 27.7285 1.33049Z" fill="#202A3D"/>
<path fill-rule="evenodd" clip-rule="evenodd" d="M19.4999 27.131C18.2098 28.1971 16.9333 29.1535 15.6934 29.9937C13.863 31.2338 12.1104 32.222 10.5132 32.9351C10.3924 32.9891 10.2724 33.0414 10.1534 33.0922C8.24237 33.9076 6.75648 34.235 5.7437 34.2497C5.11304 34.2589 4.8342 34.1483 4.73935 34.0979C4.69843 33.9942 4.61445 33.6928 4.66747 33.03C4.75285 31.964 5.16514 30.4205 6.07016 28.4652C6.80509 26.8775 7.80773 25.1455 9.04726 23.3427C9.89008 22.1169 10.8418 20.8566 11.8993 19.5883C12.1344 19.3063 12.3747 19.0239 12.6199 18.7412C13.6192 17.5894 14.7021 16.4339 15.8631 15.2916C17.0736 14.1005 18.2929 12.999 19.4999 11.9941C20.7074 12.9993 21.926 14.1003 23.137 15.2917C24.5835 16.715 25.9082 18.1572 27.1016 19.5886C25.948 20.9606 24.6743 22.3443 23.2888 23.7075C22.0279 24.9482 20.7563 26.0926 19.4999 27.131ZM32.9298 28.4653C32.1951 26.8782 31.1919 25.145 29.9529 23.3427C29.1031 24.3275 28.206 25.3082 27.2593 26.2766L26.3558 27.1833C25.3487 28.1742 24.3319 29.1115 23.311 29.9942C25.2789 31.3273 27.155 32.3705 28.8466 33.0923C30.7576 33.9077 32.2435 34.2351 33.2563 34.2499C33.887 34.259 34.1658 34.1485 34.2607 34.0981C34.3016 33.9945 34.3865 33.6931 34.3335 33.0301C34.2481 31.9641 33.8349 30.4206 32.9298 28.4653ZM27.1603 37.4958C24.7737 36.4774 22.1676 34.9592 19.5029 33.0225C16.8369 34.9603 14.2274 36.4768 11.8397 37.4957C9.62911 38.439 7.569 38.9733 5.8056 38.999C4.04229 39.0247 2.49279 38.5392 1.43878 37.345L1.25009 37.1151C0.344017 35.9411 0.0455399 34.368 0.184841 32.6283C0.333534 30.773 0.983162 28.6425 2.02981 26.381C3.02197 24.2373 4.38963 21.9389 6.07393 19.6027C6.97112 18.3584 7.95989 17.1013 9.02939 15.8511C10.1935 14.4903 11.4535 13.1375 12.8011 11.8116L13.7216 10.9239C14.3814 10.2996 15.0449 9.69785 15.7097 9.11977C16.9734 8.02089 18.2418 7.00762 19.4979 6.08765C22.3716 3.98329 25.1833 2.36599 27.7285 1.33049C29.8479 0.468311 31.8198 -0.00612641 33.512 5.97416e-05C35.2058 0.0063131 36.6922 0.497524 37.7131 1.65414L37.7291 1.67417L37.8848 1.86288L37.8998 1.88185C38.8239 3.07828 39.1164 4.68337 38.9601 6.45825C38.8034 8.23466 38.1943 10.2594 37.2209 12.4062C36.1922 14.6748 34.7357 17.119 32.925 19.6044C34.609 21.9405 35.9776 24.2366 36.9702 26.3811C38.0168 28.6426 38.6665 30.7731 38.8152 32.6285C38.9545 34.3681 38.656 35.9413 37.7499 37.1153L37.5612 37.3451C36.5072 38.5394 34.9577 39.0237 33.1944 38.9981C31.431 38.9724 29.3709 38.4391 27.1603 37.4958ZM33.0807 10.5339C32.3192 12.179 31.2712 13.9795 29.9689 15.8524C28.8063 14.4935 27.5501 13.1405 26.2039 11.816L25.2834 10.9283C24.6236 10.3039 23.9538 9.69869 23.2889 9.12057C25.3193 7.73058 27.2567 6.64975 28.9975 5.90689C30.9086 5.09141 32.3962 4.76513 33.4092 4.7504C34.0388 4.74132 34.3173 4.85175 34.4125 4.90221C34.4535 5.006 34.5385 5.30723 34.4854 5.97014C34.4001 7.0358 33.9859 8.57817 33.0807 10.5339Z" fill="#202A3D"/>
</svg>
